<svg xmlns="http://www.w3.org/2000/svg" viewBox="0 0 32 32" width="32" height="32">
  <defs>
    <linearGradient id="morangoGrad" x1="0%" y1="0%" x2="100%" y2="100%">
      <stop offset="0%" stop-color="#ff3366" />
      <stop offset="40%" stop-color="#ff0055" />
      <stop offset="100%" stop-color="#7c3aed" />
    </linearGradient>
    <filter id="glow" x="-20%" y="-20%" width="140%" height="140%">
      <feDropShadow dx="0" dy="1.5" stdDeviation="1.5" flood-color="#ff0055" flood-opacity="0.3" />
    </filter>
  </defs>
  <!-- Outer strawberry shape representing 'Morango' -->
  <path d="M16 2.5C16 2.5 25.5 8 25.5 15.5C25.5 21 21.5 26.5 16 29.5C10.5 26.5 6.5 21 6.5 15.5C6.5 8 16 2.5 16 2.5Z" fill="url(#morangoGrad)" filter="url(#glow)" />
  <!-- Node lines representing Task connections / AI -->
  <line x1="16" y1="10" x2="11" y2="16.5" stroke="#ffffff" stroke-width="1.5" stroke-linecap="round" opacity="0.85" />
  <line x1="16" y1="10" x2="21" y2="16.5" stroke="#ffffff" stroke-width="1.5" stroke-linecap="round" opacity="0.85" />
  <line x1="11" y1="16.5" x2="16" y2="23" stroke="#ffffff" stroke-width="1.5" stroke-linecap="round" opacity="0.85" />
  <line x1="21" y1="16.5" x2="16" y2="23" stroke="#ffffff" stroke-width="1.5" stroke-linecap="round" opacity="0.85" />
  <line x1="11" y1="16.5" x2="21" y2="16.5" stroke="#ffffff" stroke-width="1.2" stroke-linecap="round" opacity="0.5" />
  <!-- Glow/Nodes representing task statuses -->
  <circle cx="16" cy="10" r="2.2" fill="#ffffff" />
  <circle cx="11" cy="16.5" r="2.2" fill="#ffffff" />
  <circle cx="21" cy="16.5" r="2.2" fill="#ffffff" />
  <circle cx="16" cy="23" r="2.2" fill="#ffffff" />
</svg>